<?xml version="1.0" encoding="utf-8"?>
<!-- Generator: Adobe Illustrator 24.1.2, SVG Export Plug-In . SVG Version: 6.00 Build 0)  -->
<svg version="1.1" id="Layer_1" xmlns="http://www.w3.org/2000/svg" xmlns:xlink="http://www.w3.org/1999/xlink" x="0px" y="0px"
	 viewBox="0 0 500 500" fill="#13e8b5" xml:space="preserve">
<g>
	<path id="logo_U" d="M243.2,412.8v-7.3l1.3-321.3c0-0.5-0.2-1.3-0.3-2.2c-0.3-2-1.2-3.5-1.5-4.1c-0.3-0.7-0.8-1.7-1.8-2.7
		c-1.7-1.7-3.3-2.5-3.6-2.7c-1.3-0.5-2.3-0.7-3.5-0.8c-2.2-0.3-3.8-0.2-4.3,0c-2.7,0.3-4.8,1.2-6.1,2c-9.9,9.9-19.9,19.9-30,30
		L192.8,266v3.8c0,0.3,0,0.8-0.2,1.5c-0.5,1.7-1.3,2.7-1.8,3.1c0,0-1.5,1.7-3.6,2.3c-1,0.3-2.2,0.3-2.2,0.3c-0.2,0-0.5,0-0.5,0
		l-7.3-0.2l-14.7-0.2h-16.9c-0.2,0-0.5,0-0.7,0c-0.5,0-1.5,0-2.7-0.3c-1.2-0.3-2-1-2.5-1.3c-0.7-0.5-1.7-1.2-2.3-2.5
		c-0.5-0.8-0.7-1.7-0.7-2.2c-0.2-0.7-0.2-1.3-0.2-1.7V183c0-0.2,0-0.5,0-0.7c0-0.7,0-1.5-0.3-2.3c-0.2-0.3-0.5-1.5-1.5-2.8
		c-0.7-0.8-2.3-3-5.3-4c-0.7-0.2-2.8-0.8-5.1,0c-0.2,0-0.2,0-0.2,0.2c-5.8,5.8-11.6,11.4-17.4,17.2v-0.2l-27.3,27.3
		c-18.1,18.1-18.1,47.2,0,65.1L94.6,298l0,0l3.6,3.6l9.1,9.1l0,0l109.4,108.7l4.6,4.6c0.2,0.2,0.2,0.3,0.5,0.5
		c2.2,2,4.5,2.7,5.6,2.8c3.8,0.8,7,0,7.8-0.3c1.3-0.3,3.8-1.2,5.6-3.5c1.5-1.8,2.2-3.6,2.3-4.5c0.5-1.8,0.7-3.6,0.7-4.3
		c0-0.3,0-0.7,0-1L243.2,412.8L243.2,412.8z"/>
	<path id="logo_border" d="M250.5,50.6c15.2,0,30.5,5.8,42.3,17.4l139.4,139.4c23.4,23.4,23.4,61.1,0,84.4L292.8,431.2
		c-11.6,11.6-26.8,17.4-42.3,17.4s-30.5-5.8-42.3-17.4L69,291.9c-23.4-23.4-23.4-61.1,0-84.4L208.4,68.1
		C220,56.4,235.3,50.6,250.5,50.6 M250.5-0.8c-29.7,0-57.5,11.6-78.6,32.5L32.6,171c-21,21-32.5,48.9-32.5,78.6
		c0,29.7,11.6,57.5,32.5,78.6l139.4,139.4c21,21,48.9,32.5,78.6,32.5s57.5-11.6,78.6-32.5l139.4-139.4c21-21,32.5-48.9,32.5-78.6
		s-11.6-57.5-32.5-78.6L329.1,31.7C308.2,10.8,280.2-0.8,250.5-0.8L250.5-0.8L250.5-0.8z"/>
	<path id="logo_P" d="M422.5,217.1l-23.2-23.2L280,73.9c0,0,0,0-1-1c-0.3-0.2-1.8-0.7-3.5-1c-1.5-0.3-3.1-0.5-3.6-0.5
		c-0.5,0-2.2-0.2-4.3,0c-1.2,0.2-2.2,0.3-3.5,0.8c-0.5,0.2-2.2,1-3.6,2.7c-1,1-1.5,2-1.8,2.7c-0.3,0.7-1,2.2-1.5,4.1
		c-0.2,0.8-0.3,1.7-0.3,2.2l1.3,321.3v7.3v0.5c0,0.2,0,0.5,0,1c0,0.7,0,2.5,0.7,4.3c0.3,0.8,0.8,2.7,2.3,4.5c2,2.3,4.5,3,5.6,3.5
		c0.8,0.3,4,1.2,7.8,0.3c1.2-0.3,3.6-0.8,5.6-2.8c0.2-0.2,0.3-0.3,0.5-0.5l4.6-4.6c7.8-7.6,15.4-15.4,23.2-23v-0.2
		c0,0,0-73.4,0-86.5c3.3,3.5,6.6,7.1,9.9,10.6c4.1,3.6,13.8,11.1,28.2,13.1c10.6,1.5,21-0.7,26.7-3.8c2.3-1.3,6.8-4.3,9.3-6.6
		c0.3-0.2,1.5-1.3,2.8-2.8c1.2-1.3,2.5-2.5,2.5-2.7l5.1-5.1c0,0,0,0,3.1-3.1l26-25.9C440.4,264.7,440.6,235.2,422.5,217.1
		L422.5,217.1z M372.6,260.9l-17.1,17.1v-0.3l0,0c-0.5,0.3-0.8,0.7-1.2,0.8c-6,3.6-12.1,2.7-14.4,2.3c-3.3-0.5-5.8-1.7-8.9-3.3
		l-0.2,0.3c-1.2-0.7-2.5-1.5-3.8-2.3c-4.1-2.5-7.3-5-9.1-6.6c-4-3.3-6.8-6.8-8.8-9.4c-0.2-28.5-0.5-57-0.7-85.5l47.9,47.7v0.3
		l5.3,5.3l0,0l3.5,3.5l-0.2,0.2l7,7c3.3,3.3,5,7.5,5.1,11.4C377.3,253.6,375.8,257.7,372.6,260.9L372.6,260.9z"/>
</g>
</svg>
